<?xml version="1.0" standalone="no"?>
<!DOCTYPE svg PUBLIC "-//W3C//DTD SVG 20010904//EN"
 "http://www.w3.org/TR/2001/REC-SVG-20010904/DTD/svg10.dtd">
<svg version="1.0" xmlns="http://www.w3.org/2000/svg"
 width="512.000000pt" height="512.000000pt" viewBox="0 0 512.000000 512.000000"
 preserveAspectRatio="xMidYMid meet">

<g transform="translate(0.000000,512.000000) scale(0.100000,-0.100000)"
fill="#000000" stroke="none">
<path d="M1495 5108 c-178 -34 -351 -192 -408 -373 l-22 -70 0 -2105 0 -2105
22 -70 c58 -184 223 -334 411 -374 37 -8 329 -11 950 -11 985 0 972 0 1093 61
88 44 196 154 236 239 53 113 58 150 58 447 l0 272 -28 29 c-37 38 -79 47
-124 25 -59 -28 -63 -50 -63 -337 0 -233 -2 -260 -21 -310 -28 -77 -94 -146
-171 -182 l-63 -29 -910 0 c-885 0 -911 1 -964 20 -68 25 -144 92 -179 159
l-27 51 0 2115 0 2115 29 53 c37 66 92 116 165 151 l56 26 915 0 915 0 67 -33
c80 -39 139 -102 168 -178 19 -51 20 -77 20 -405 0 -387 2 -404 60 -434 67
-35 143 10 156 90 3 24 4 195 1 382 -3 267 -8 349 -20 392 -51 172 -172 303
-345 370 l-67 26 -930 2 c-561 0 -950 -3 -980 -9z"/>
<path d="M1740 4691 c-56 -17 -110 -53 -153 -101 -142 -158 -92 -407 101 -502
45 -22 58 -23 322 -26 303 -3 332 0 405 53 119 84 167 234 120 374 -25 76
-109 161 -188 190 -54 20 -76 21 -320 20 -144 0 -273 -4 -287 -8z m571 -239
c43 -47 41 -102 -5 -148 l-34 -34 -242 0 -242 0 -34 34 c-27 27 -34 42 -34 74
0 43 28 87 64 102 11 5 128 8 259 7 l239 -2 29 -33z"/>
<path d="M3307 3749 c-24 -13 -51 -41 -74 -77 -52 -82 -159 -182 -239 -224
-135 -71 -266 -96 -408 -78 -59 7 -98 7 -124 1 -38 -11 -89 -56 -111 -98 -8
-15 -11 -151 -11 -442 0 -372 2 -432 19 -518 51 -263 151 -446 350 -644 132
-131 258 -220 422 -298 206 -99 260 -108 381 -65 209 75 405 201 569 363 203
202 301 385 355 666 15 76 18 154 18 490 1 220 -2 412 -7 428 -4 15 -24 45
-43 67 -48 53 -94 65 -187 49 -128 -21 -289 8 -407 73 -110 61 -183 131 -269
256 -47 68 -156 92 -234 51z m151 -296 c71 -84 178 -163 292 -216 136 -64 210
-81 362 -81 l128 -1 0 -342 c0 -191 -5 -376 -11 -419 -52 -375 -317 -686 -738
-866 l-93 -40 -47 18 c-25 9 -93 41 -151 69 -361 180 -591 476 -639 819 -6 43
-11 229 -11 419 l0 342 133 1 c147 2 233 19 350 72 125 57 268 170 332 262 16
22 31 37 35 33 3 -4 30 -36 58 -70z"/>
<path d="M3155 3111 c-11 -5 -43 -35 -71 -67 -257 -296 -254 -292 -254 -333 0
-71 66 -122 135 -105 31 8 309 319 332 372 35 84 -55 168 -142 133z"/>
<path d="M3465 2938 c-67 -64 -607 -683 -617 -708 -15 -39 7 -97 45 -120 40
-25 74 -25 109 -2 40 25 617 681 634 720 30 67 -22 142 -97 142 -31 0 -47 -7
-74 -32z"/>
</g>
</svg>
